<?xml version="1.0" encoding="iso-8859-1"?>
<!-- Generator: Adobe Illustrator 19.0.0, SVG Export Plug-In . SVG Version: 6.00 Build 0)  -->
<svg version="1.1" id="Capa_1" xmlns="http://www.w3.org/2000/svg" xmlns:xlink="http://www.w3.org/1999/xlink" x="0px" y="0px"
	 viewBox="0 0 480 480" style="enable-background:new 0 0 480 480;" xml:space="preserve">
<g>
	
		<linearGradient id="SVGID_1_" gradientUnits="userSpaceOnUse" x1="-26.875" y1="558.245" x2="-26.875" y2="620.116" gradientTransform="matrix(8 0 0 -8 455 4941)">
		<stop  offset="0" style="stop-color:#006DF0"/>
		<stop  offset="1" style="stop-color:#00E7F0"/>
	</linearGradient>
	<path style="fill:url(#SVGID_1_);" d="M240,216c-30.928,0-56-25.072-56-56s25.072-56,56-56s56,25.072,56,56
		C295.965,190.913,270.913,215.965,240,216z M240,120c-22.091,0-40,17.909-40,40s17.909,40,40,40s40-17.909,40-40
		C279.974,137.92,262.08,120.026,240,120z"/>
	
		<linearGradient id="SVGID_2_" gradientUnits="userSpaceOnUse" x1="-26.875" y1="558.245" x2="-26.875" y2="620.116" gradientTransform="matrix(8 0 0 -8 455 4941)">
		<stop  offset="0" style="stop-color:#006DF0"/>
		<stop  offset="1" style="stop-color:#00E7F0"/>
	</linearGradient>
	<path style="fill:url(#SVGID_2_);" d="M240,480c-2.674,0-5.172-1.335-6.656-3.56C227.08,467.04,80,245.392,80,160
		C80,71.634,151.634,0,240,0s160,71.634,160,160c0,85.392-147.08,307.04-153.344,316.44C245.172,478.665,242.674,480,240,480z
		 M240,16C160.509,16.093,96.093,80.509,96,160c0,70.72,114.84,252.408,144,297.384C269.16,412.408,384,230.704,384,160
		C383.907,80.509,319.491,16.093,240,16z"/>
</g>
<g>
</g>
<g>
</g>
<g>
</g>
<g>
</g>
<g>
</g>
<g>
</g>
<g>
</g>
<g>
</g>
<g>
</g>
<g>
</g>
<g>
</g>
<g>
</g>
<g>
</g>
<g>
</g>
<g>
</g>
</svg>
