<svg height="464pt" viewBox="-56 0 464 464.39545" width="464pt" xmlns="http://www.w3.org/2000/svg"><path d="m352.199219 424.394531c0-22.089843-78.800781-40-176-40-97.203125 0-176 17.910157-176 40 0 22.09375 78.796875 40 176 40 97.199219 0 176-17.90625 176-40zm0 0" fill="#adabac"/><path d="m328.660156 264.035156h-.054687c42.726562-73.96875 26.175781-167.9375-39.257813-222.851562-65.433594-54.910156-160.851562-54.910156-226.28125 0-65.433594 54.914062-81.988281 148.882812-39.261718 222.851562l.175781.257813c4.09375 7.054687 8.675781 13.8125 13.714843 20.230469l111.199219 132.054687h.101563c7.875 7.890625 11.203125 15.816406 27.449218 15.816406 11.148438-.605469 21.34375-6.476562 27.464844-15.816406h.144532l111.285156-132.796875c4.726562-6.097656 9.042968-12.492188 12.929687-19.152344zm0 0" fill="#ad2943"/><path d="m256.199219 176.050781c0 44.183594-35.820313 80-80 80-44.183594 0-80-35.816406-80-80 0-44.183593 35.816406-80 80-80 44.179687 0 80 35.816407 80 80zm0 0" fill="#ee3446"/></svg>